<?xml version="1.0" encoding="UTF-8"?>
<svg version="1.1" viewBox="0 0 2048 2048" width="600" height="600" xmlns="http://www.w3.org/2000/svg">
<path transform="translate(762,64)" d="m0 0h492l8 7 1 2v11l-4 10-13 28-8 18-11 24-8 16-11 26h101l4 2 4 7v15l-8 16-21 45-9 20-12 27-6 12-7 16-4 8-7 16-15 33-16 34-9 19-5 11-4 7 1 2h63l93 2 88 1 41 1 15 1 7 4 3 4 1 9-4 10-15 23-15 24-10 15-14 22-10 15-8 14 8-1h29l70 1 13 1 8 7 2 8-1 9-7 11-9 14-11 17-21 33-12 19-14 22-10 16-13 20-11 17-11 18-15 23-15 24-16 25-11 17-10 16-9 14-9 15-11 17-9 14-14 22-15 24-10 15-13 21-11 17-13 21-16 25-12 19-11 17-10 16-13 20-10 16-9 14-13 21-16 25-14 22-9 14-14 22-11 17-11 18-13 20-13 21-11 17-14 22-8 13-16 25-9 14-10 16-15 23-11 18-14 22-11 17-12 19-16 25-13 21-14 22-13 21-18 27-11 18-12 19-14 22-11 18-10 15-20 32-15 23-9 15-12 19-11 18-12 17-10 3-9-1-7-8-1-2v-10l9-35 10-36 12-45 7-24 5-20 6-21 8-30 7-25 6-23 5-15 4-19-4 4-5 10-10 16-14 22-9 15-16 26-20 32-12 19-8 13-7 10-6 4h-12l-5-3-5-6-1-2v-10l4-15 5-16 7-27 10-36 20-75 13-49 8-29 9-33 9-34 6-21 8-31 7-25 7-28 7-25 7-27 7-26 6-22 10-38 9-32 8-32 7-25 9-35 17-63 8-30 15-55 6-23 4-10h-320l-7-5-4-7 2-11 7-20 6-16 19-51 9-24 2-6-86-1-7-2-6-12 1-9 13-34 8-22 9-24 4-12 9-24 14-39 10-26 8-22 10-27 10-28 19-52 6-15 9-25 17-46 11-30 12-33 9-24 7-19 12-32 12-33 9-24 8-22 17-47 13-34 9-25 6-11z" fill="#FED843"/>
<path transform="translate(762,64)" d="m0 0h492l8 7 1 2v11l-4 10-13 28-8 18-11 24-8 16-11 26h101l4 2 4 7v15l-8 16-21 45-9 20-12 27-6 12-7 16-4 8-7 16-15 33-16 34-9 19-5 11-4 7 1 2h63l93 2 88 1 41 1 15 1 7 4 3 4 1 9-4 10-15 23-15 24-10 15-14 22-10 15-8 14 8-1h29l70 1 13 1 8 7 2 8-1 9-7 11-9 14-11 17-21 33-12 19-14 22-10 16-13 20-11 17-11 18-15 23-15 24-16 25-11 17-10 16-9 14-9 15-11 17-9 14-14 22-15 24-10 15-13 21-11 17-13 21-16 25-12 19-11 17-10 16-13 20-10 16-9 14-13 21-16 25-14 22-9 14-14 22-11 17-11 18-13 20-13 21-11 17-14 22-8 13-16 25-9 14-10 16-15 23-11 18-14 22-11 17-12 19-16 25-13 21-14 22-13 21-18 27-11 18-12 19-14 22-11 18-10 15-20 32-15 23-9 15-12 19-11 18-12 17-10 3-9-1-7-8-1-2v-10l9-35 10-36 12-45 7-24 5-20 6-21 8-30 7-25 6-23 5-15 4-19-4 4-5 10-10 16-14 22-9 15-16 26-20 32-12 19-8 13-7 10-6 4h-12l-5-3-5-6-1-2v-10l4-15 5-16 7-27 10-36 20-75 13-49 8-29 9-33 9-34 6-21 8-31 7-25 7-28 7-25 7-27 7-26 6-22 10-38 9-32 8-32 7-25 9-35 17-63 8-30 15-55 6-23 4-10h-320l-7-5-4-7 2-11 7-20 6-16 19-51 9-24 2-6-86-1-7-2-6-12 1-9 13-34 8-22 9-24 4-12 9-24 14-39 10-26 8-22 10-27 10-28 19-52 6-15 9-25 17-46 11-30 12-33 9-24 7-19 12-32 12-33 9-24 8-22 17-47 13-34 9-25 6-11zm21 31-3 5-8 20-12 33-21 57-15 41-17 46-14 38-17 46-18 49-17 46-18 49-17 46-15 41-13 35-18 49-17 46-16 43 1 2h232l177 1 6 4 3 6v8l-11 42-23 86-30 112-25 93-20 75-25 93-48 179-19 71-22 82-12 45-10 37-1 9 3-3 10-17 11-17 42-66 12-19 16-25 12-19 42-66 16-25 14-22 24-38 28-44 12-19 28-44 24-38 28-44 24-38 14-22 24-38 28-44 12-19 28-44 12-19 28-44 24-38 28-44 12-19 16-25 12-19 28-44 10-16 28-44 24-38 16-25 15-24 14-22 12-19 14-22 12-19 3-4v-3l-84-2-278-5-48-1-9-3-4-6v-10l7-17 13-28 34-74 16-35 15-33 13-29 21-45 15-33 16-35 16-36 15-32 4-9v-3z" fill="#040302"/>
<path transform="translate(1207,203)" d="m0 0 1 3h101l4 2 4 7-1 4-4-8-6-3-99-1z" fill="#FEDC58"/>
<path transform="translate(1495,502)" d="m0 0 4 1 5 5 2 6-1 8-3 4 1-5v-9l-3-5v-2l-5-2z" fill="#FEEBA2"/>
</svg>
